<svg xmlns="http://www.w3.org/2000/svg" width="720" height="520" viewBox="0 0 720 520" role="img" aria-labelledby="title desc">
  <title id="title">Aluminum Cut Wire</title>
  <desc id="desc">Aluminum Cut Wire</desc>
  <defs>
    <linearGradient id="bg" x1="0" x2="1" y1="0" y2="1">
      <stop offset="0" stop-color="#edf2f7"/>
      <stop offset="1" stop-color="#ffffff"/>
    </linearGradient>
    <filter id="shadow" x="-20%" y="-20%" width="140%" height="150%">
      <feDropShadow dx="0" dy="18" stdDeviation="18" flood-color="#10241d" flood-opacity=".18"/>
    </filter>
  </defs>
  <rect width="720" height="520" rx="36" fill="url(#bg)"/>
  <circle cx="94" cy="78" r="58" fill="#a0aec0" opacity=".18"/>
  <circle cx="626" cy="92" r="88" fill="#4a5568" opacity=".08"/>
  <g filter="url(#shadow)">
    <rect x="190" y="166" width="42" height="22" rx="11" fill="#a0aec0" stroke="#4a5568" stroke-width="6"/><rect x="248" y="166" width="42" height="22" rx="11" fill="#a0aec0" stroke="#4a5568" stroke-width="6"/><rect x="306" y="166" width="42" height="22" rx="11" fill="#a0aec0" stroke="#4a5568" stroke-width="6"/><rect x="364" y="166" width="42" height="22" rx="11" fill="#a0aec0" stroke="#4a5568" stroke-width="6"/><rect x="422" y="166" width="42" height="22" rx="11" fill="#a0aec0" stroke="#4a5568" stroke-width="6"/><rect x="480" y="166" width="42" height="22" rx="11" fill="#a0aec0" stroke="#4a5568" stroke-width="6"/><rect x="190" y="228" width="42" height="22" rx="11" fill="#a0aec0" stroke="#4a5568" stroke-width="6"/><rect x="248" y="228" width="42" height="22" rx="11" fill="#a0aec0" stroke="#4a5568" stroke-width="6"/><rect x="306" y="228" width="42" height="22" rx="11" fill="#a0aec0" stroke="#4a5568" stroke-width="6"/><rect x="364" y="228" width="42" height="22" rx="11" fill="#a0aec0" stroke="#4a5568" stroke-width="6"/><rect x="422" y="228" width="42" height="22" rx="11" fill="#a0aec0" stroke="#4a5568" stroke-width="6"/><rect x="480" y="228" width="42" height="22" rx="11" fill="#a0aec0" stroke="#4a5568" stroke-width="6"/><rect x="190" y="290" width="42" height="22" rx="11" fill="#a0aec0" stroke="#4a5568" stroke-width="6"/><rect x="248" y="290" width="42" height="22" rx="11" fill="#a0aec0" stroke="#4a5568" stroke-width="6"/><rect x="306" y="290" width="42" height="22" rx="11" fill="#a0aec0" stroke="#4a5568" stroke-width="6"/><rect x="364" y="290" width="42" height="22" rx="11" fill="#a0aec0" stroke="#4a5568" stroke-width="6"/><rect x="422" y="290" width="42" height="22" rx="11" fill="#a0aec0" stroke="#4a5568" stroke-width="6"/><rect x="480" y="290" width="42" height="22" rx="11" fill="#a0aec0" stroke="#4a5568" stroke-width="6"/>
  </g>
  <rect x="54" y="398" width="612" height="72" rx="20" fill="#ffffff" opacity=".92"/>
  <text x="84" y="430" fill="#14342b" font-family="Arial, sans-serif" font-size="28" font-weight="700">Aluminum Cut Wire</text>
  <text x="84" y="458" fill="#64746d" font-family="Arial, sans-serif" font-size="18">Aluminum Cut Wire</text>
  <text x="635" y="454" text-anchor="end" fill="#4a5568" font-family="Arial, sans-serif" font-size="20" font-weight="700">RPV</text>
</svg>
