<svg xmlns="http://www.w3.org/2000/svg" width="720" height="520" viewBox="0 0 720 520" role="img" aria-labelledby="title desc">
  <title id="title">Nylon Polyamide Plastic Media KA</title>
  <desc id="desc">Nylon Polyamide Plastic Media KA</desc>
  <defs>
    <linearGradient id="bg" x1="0" x2="1" y1="0" y2="1">
      <stop offset="0" stop-color="#e9f5db"/>
      <stop offset="1" stop-color="#ffffff"/>
    </linearGradient>
    <filter id="shadow" x="-20%" y="-20%" width="140%" height="150%">
      <feDropShadow dx="0" dy="18" stdDeviation="18" flood-color="#10241d" flood-opacity=".18"/>
    </filter>
  </defs>
  <rect width="720" height="520" rx="36" fill="url(#bg)"/>
  <circle cx="94" cy="78" r="58" fill="#8ecae6" opacity=".18"/>
  <circle cx="626" cy="92" r="88" fill="#2a9d8f" opacity=".08"/>
  <g filter="url(#shadow)">
    <path d="M224 162c28 0 42 19 32 43l-12 28h-68l-12-28c-10-24 4-43 32-43z" fill="#e9f5db" stroke="#2a9d8f" stroke-width="6"/><path d="M296 162c28 0 42 19 32 43l-12 28h-68l-12-28c-10-24 4-43 32-43z" fill="#8ecae6" stroke="#2a9d8f" stroke-width="6"/><path d="M368 162c28 0 42 19 32 43l-12 28h-68l-12-28c-10-24 4-43 32-43z" fill="#e9f5db" stroke="#2a9d8f" stroke-width="6"/><path d="M440 162c28 0 42 19 32 43l-12 28h-68l-12-28c-10-24 4-43 32-43z" fill="#8ecae6" stroke="#2a9d8f" stroke-width="6"/><path d="M512 162c28 0 42 19 32 43l-12 28h-68l-12-28c-10-24 4-43 32-43z" fill="#e9f5db" stroke="#2a9d8f" stroke-width="6"/><path d="M224 226c28 0 42 19 32 43l-12 28h-68l-12-28c-10-24 4-43 32-43z" fill="#8ecae6" stroke="#2a9d8f" stroke-width="6"/><path d="M296 226c28 0 42 19 32 43l-12 28h-68l-12-28c-10-24 4-43 32-43z" fill="#e9f5db" stroke="#2a9d8f" stroke-width="6"/><path d="M368 226c28 0 42 19 32 43l-12 28h-68l-12-28c-10-24 4-43 32-43z" fill="#8ecae6" stroke="#2a9d8f" stroke-width="6"/><path d="M440 226c28 0 42 19 32 43l-12 28h-68l-12-28c-10-24 4-43 32-43z" fill="#e9f5db" stroke="#2a9d8f" stroke-width="6"/><path d="M512 226c28 0 42 19 32 43l-12 28h-68l-12-28c-10-24 4-43 32-43z" fill="#8ecae6" stroke="#2a9d8f" stroke-width="6"/><path d="M224 290c28 0 42 19 32 43l-12 28h-68l-12-28c-10-24 4-43 32-43z" fill="#e9f5db" stroke="#2a9d8f" stroke-width="6"/><path d="M296 290c28 0 42 19 32 43l-12 28h-68l-12-28c-10-24 4-43 32-43z" fill="#8ecae6" stroke="#2a9d8f" stroke-width="6"/><path d="M368 290c28 0 42 19 32 43l-12 28h-68l-12-28c-10-24 4-43 32-43z" fill="#e9f5db" stroke="#2a9d8f" stroke-width="6"/><path d="M440 290c28 0 42 19 32 43l-12 28h-68l-12-28c-10-24 4-43 32-43z" fill="#8ecae6" stroke="#2a9d8f" stroke-width="6"/>
  </g>
  <rect x="54" y="398" width="612" height="72" rx="20" fill="#ffffff" opacity=".92"/>
  <text x="84" y="430" fill="#14342b" font-family="Arial, sans-serif" font-size="28" font-weight="700">Nylon Polyamide Plastic Media KA</text>
  <text x="84" y="458" fill="#64746d" font-family="Arial, sans-serif" font-size="18">Nylon Polyamide Plastic Media KA</text>
  <text x="635" y="454" text-anchor="end" fill="#2a9d8f" font-family="Arial, sans-serif" font-size="20" font-weight="700">RPV</text>
</svg>
